<svg xmlns="http://www.w3.org/2000/svg" xmlns:xlink="http://www.w3.org/1999/xlink" width="512" height="512" viewBox="0 0 512 512">
  <defs>
    <clipPath id="clip-Artboard_79">
      <rect width="512" height="512"/>
    </clipPath>
  </defs>
  <g id="Artboard_79" data-name="Artboard – 79" clip-path="url(#clip-Artboard_79)">
    <path id="Union_19" data-name="Union 19" d="M134.943,448H37.336A37.374,37.374,0,0,1,0,410.668q0-.384.008-.767a37.3,37.3,0,0,1,13.051-27.608,142.978,142.978,0,0,0,50.848-104.3Q64,275.41,64,272.813v-59.48q0-.724.007-1.446c.727-76.29,58.945-139.08,133.329-147.036V16a16,16,0,0,1,32,0V64.851c74.459,7.964,132.72,70.878,133.327,147.276q0,.6,0,1.205v59.48a142.829,142.829,0,0,0,50.755,109.309A37.349,37.349,0,0,1,389.336,448H291.729a80.012,80.012,0,0,1-156.786,0Zm78.393,32a48.071,48.071,0,0,0,45.26-32h-90.52A48.068,48.068,0,0,0,213.336,480Z" transform="translate(42.666)" fill="#223143"/>
  </g>
</svg>
