<svg xmlns="http://www.w3.org/2000/svg" xmlns:xlink="http://www.w3.org/1999/xlink" width="512" height="512" viewBox="0 0 512 512">
  <defs>
    <clipPath id="clip-Artboard_88">
      <rect width="512" height="512"/>
    </clipPath>
  </defs>
  <g id="Artboard_88" data-name="Artboard – 88" clip-path="url(#clip-Artboard_88)">
    <g id="history-3" transform="translate(1.003 14)">
      <path id="Path_270" data-name="Path 270" d="M35.784,158.6l80.852,60.639a13.475,13.475,0,0,0,16.17-21.561L57.951,141.016V26.475a13.475,13.475,0,1,0-26.951,0V147.754A13.933,13.933,0,0,0,35.784,158.6Z" transform="translate(229.308 91.487)" fill="#223143"/>
      <path id="Path_271" data-name="Path 271" d="M271.477,2A239.521,239.521,0,0,0,35.31,201.6l-6.068-9.022A15.988,15.988,0,1,0,2.735,210.462l31.936,47.9a15.975,15.975,0,0,0,11.657,7.106h1.6a15.936,15.936,0,0,0,11.257-4.711l39.92-39.92a15.977,15.977,0,0,0-22.595-22.595l-9.9,9.98C84.994,95.062,191.637,18.239,304.794,36.627s190,125.022,171.608,238.187A207.584,207.584,0,0,1,271.477,449.1a196.491,196.491,0,0,1-162.634-81.118A15.973,15.973,0,0,0,82.815,386.51,228.105,228.105,0,0,0,271.477,481.04C403.764,481.04,511,373.807,511,241.52S403.764,2,271.477,2Z" transform="translate(0 0)" fill="#223143"/>
    </g>
  </g>
</svg>
