<svg xmlns="http://www.w3.org/2000/svg" xmlns:xlink="http://www.w3.org/1999/xlink" width="512" height="512" viewBox="0 0 512 512">
  <defs>
    <clipPath id="clip-Artboard_52">
      <rect width="512" height="512"/>
    </clipPath>
  </defs>
  <g id="Artboard_52" data-name="Artboard – 52" clip-path="url(#clip-Artboard_52)">
    <g id="settings-2">
      <path id="Union_21" data-name="Union 21" d="M-6486.066-1903a47.187,47.187,0,0,1-47.134-47.134V-1961a206.783,206.783,0,0,1-32.1-13.322l-7.7,7.7a47.132,47.132,0,0,1-66.664-.007l-22.712-22.709a47.133,47.133,0,0,1,.007-66.666l7.7-7.7A206.866,206.866,0,0,1-6668-2095.8h-10.869A47.186,47.186,0,0,1-6726-2142.932v-32.135a47.186,47.186,0,0,1,47.132-47.133H-6668a206.678,206.678,0,0,1,13.324-32.1l-7.7-7.7a47.136,47.136,0,0,1,0-66.666l22.714-22.712a47.129,47.129,0,0,1,66.664.007l7.7,7.7A206.774,206.774,0,0,1-6533.2-2357v-10.871A47.187,47.187,0,0,1-6486.066-2415h32.133a47.187,47.187,0,0,1,47.134,47.132V-2357a206.774,206.774,0,0,1,32.1,13.323l7.7-7.7a47.136,47.136,0,0,1,66.666.007l22.71,22.71a47.133,47.133,0,0,1-.005,66.666l-7.7,7.7A206.723,206.723,0,0,1-6272-2222.2h10.871A47.187,47.187,0,0,1-6214-2175.067v32.135a47.187,47.187,0,0,1-47.133,47.132H-6272a206.792,206.792,0,0,1-13.323,32.1l7.7,7.7a47.134,47.134,0,0,1-.005,66.664l-22.714,22.712a47.128,47.128,0,0,1-66.664-.005l-7.7-7.7A206.942,206.942,0,0,1-6406.8-1961v10.871A47.186,47.186,0,0,1-6453.934-1903Zm-74.216-102.83a176.8,176.8,0,0,0,45.831,19.024,15,15,0,0,1,11.252,14.525v22.147A17.153,17.153,0,0,0-6486.066-1933h32.133a17.153,17.153,0,0,0,17.135-17.133v-22.147a15,15,0,0,1,11.252-14.525,176.846,176.846,0,0,0,45.831-19.024,15,15,0,0,1,18.242,2.3l15.688,15.69a17.13,17.13,0,0,0,24.225.007l22.726-22.727a17.129,17.129,0,0,0,.006-24.224l-15.695-15.695a15,15,0,0,1-2.306-18.242,176.734,176.734,0,0,0,19.023-45.831,15,15,0,0,1,14.525-11.251h22.146A17.154,17.154,0,0,0-6244-2142.932v-32.133a17.154,17.154,0,0,0-17.135-17.133h-22.146a15,15,0,0,1-14.525-11.252,176.8,176.8,0,0,0-19.023-45.831,15,15,0,0,1,2.306-18.241l15.688-15.69a17.127,17.127,0,0,0,.006-24.224l-22.726-22.726a17.128,17.128,0,0,0-24.224-.005l-15.693,15.7a15,15,0,0,1-18.244,2.3,176.88,176.88,0,0,0-45.831-19.025,15,15,0,0,1-11.252-14.524v-22.15A17.153,17.153,0,0,0-6453.932-2385h-32.133a17.155,17.155,0,0,0-17.135,17.133v22.148a15,15,0,0,1-11.252,14.524,176.8,176.8,0,0,0-45.831,19.026,15,15,0,0,1-18.242-2.306l-15.688-15.688a17.125,17.125,0,0,0-24.223-.007l-22.728,22.726a17.129,17.129,0,0,0-.007,24.225l15.7,15.7a15,15,0,0,1,2.306,18.242,176.758,176.758,0,0,0-19.024,45.831,15,15,0,0,1-14.525,11.25h-22.148A17.156,17.156,0,0,0-6696-2175.067v32.135a17.154,17.154,0,0,0,17.133,17.133h22.148a15,15,0,0,1,14.523,11.251,176.8,176.8,0,0,0,19.024,45.831,15,15,0,0,1-2.306,18.242l-15.688,15.688a17.125,17.125,0,0,0-.005,24.224l22.724,22.726a17.129,17.129,0,0,0,24.225.007l15.695-15.695a15.651,15.651,0,0,1,10.741-4.411A14.583,14.583,0,0,1-6560.283-2005.829ZM-6581.4-2159A111.527,111.527,0,0,1-6470-2270.4,111.526,111.526,0,0,1-6358.6-2159,111.525,111.525,0,0,1-6470-2047.6,111.526,111.526,0,0,1-6581.4-2159Zm30,0a81.493,81.493,0,0,0,81.4,81.4,81.493,81.493,0,0,0,81.4-81.4,81.492,81.492,0,0,0-81.4-81.4A81.492,81.492,0,0,0-6551.4-2159Z" transform="translate(6726 2415)" fill="#223143"/>
    </g>
  </g>
</svg>
