<svg xmlns="http://www.w3.org/2000/svg" xmlns:xlink="http://www.w3.org/1999/xlink" width="512" height="512" viewBox="0 0 512 512">
  <defs>
    <clipPath id="clip-Artboard_66">
      <rect width="512" height="512"/>
    </clipPath>
  </defs>
  <g id="Artboard_66" data-name="Artboard – 66" clip-path="url(#clip-Artboard_66)">
    <g id="menu-2" transform="translate(45.762 203.441)">
      <path id="Path_109" data-name="Path 109" d="M476.391,208.726a52.56,52.56,0,1,1-74.332,0,52.559,52.559,0,0,1,74.332,0" transform="translate(-71.309 -193.333)" fill="#223143"/>
      <path id="Path_110" data-name="Path 110" d="M283.058,208.726a52.559,52.559,0,1,1-74.33,0,52.559,52.559,0,0,1,74.33,0" transform="translate(-35.655 -193.333)" fill="#223143"/>
      <path id="Path_111" data-name="Path 111" d="M89.726,208.726a52.56,52.56,0,1,1-74.33,0,52.559,52.559,0,0,1,74.33,0" transform="translate(-0.001 -193.333)" fill="#223143"/>
    </g>
  </g>
</svg>
