<svg xmlns="http://www.w3.org/2000/svg" xmlns:xlink="http://www.w3.org/1999/xlink" width="512" height="512" viewBox="0 0 512 512">
  <defs>
    <clipPath id="clip-Artboard_70">
      <rect width="512" height="512"/>
    </clipPath>
  </defs>
  <g id="Artboard_70" data-name="Artboard – 70" clip-path="url(#clip-Artboard_70)">
    <path id="Path_265" data-name="Path 265" d="M434.842,464.273H76.618a78.133,78.133,0,0,1-20.934-2.815A74.732,74.732,0,0,1,37.353,453.6,77.393,77.393,0,0,1,.014,389a75.839,75.839,0,0,1,2.3-20.044,78.962,78.962,0,0,1,8.012-19.773L189.808,38.494a77.346,77.346,0,0,1,12.877-16.841A74.442,74.442,0,0,1,218.72,9.623a77.29,77.29,0,0,1,74.7,0,74.661,74.661,0,0,1,16.059,12.029,77.576,77.576,0,0,1,12.911,16.841L501.765,349.186a76.541,76.541,0,0,1,7.952,19.462,74.474,74.474,0,0,1,2.268,19.831,78.333,78.333,0,0,1-37.558,64.9,75.257,75.257,0,0,1-18.495,8.016A77.771,77.771,0,0,1,434.842,464.273ZM256.281,320.257a27.267,27.267,0,0,0-10.825,2.238,28.8,28.8,0,0,0-15,15,27.3,27.3,0,0,0,0,21.648,28.8,28.8,0,0,0,15,15,27.269,27.269,0,0,0,10.825,2.238,26.617,26.617,0,0,0,10.976-2.4,29.32,29.32,0,0,0,9.091-6.436,27.085,27.085,0,0,0,5.557-8.508,23.59,23.59,0,0,0,1.763-10.039,27.774,27.774,0,0,0-1.81-11.2,27.374,27.374,0,0,0-25.576-17.531Zm-.193-197.774a29.591,29.591,0,0,0-6.766.792,28.767,28.767,0,0,0-15.84,11.238,33.55,33.55,0,0,0-5.823,19.4c.338,4.445.651,8.975.954,13.356l0,.023c.3,4.38.616,8.908.953,13.334.964,17.066,1.944,34.244,2.891,50.857l0,.076c.927,16.241,1.885,33.036,2.829,49.746a21.819,21.819,0,0,0,1.954,7.917,20.141,20.141,0,0,0,11.021,10.361,21.935,21.935,0,0,0,8.015,1.477,20.712,20.712,0,0,0,14.578-5.879,21.694,21.694,0,0,0,6.412-14.549c0-6.869,0-13.357.673-20.428.618-10.84,1.274-21.852,1.908-32.5l0-.077c.633-10.622,1.287-21.606,1.9-32.408.337-7.009.821-14.135,1.29-21.026s.955-14.043,1.292-21.065a34.344,34.344,0,0,0-2.582-14.03,28.387,28.387,0,0,0-10.528-12.223A28.062,28.062,0,0,0,256.088,122.483Z" transform="translate(0 24)" fill="#223143"/>
  </g>
</svg>
