<svg xmlns="http://www.w3.org/2000/svg" xmlns:xlink="http://www.w3.org/1999/xlink" width="512" height="512" viewBox="0 0 512 512">
  <defs>
    <clipPath id="clip-Artboard_81">
      <rect width="512" height="512"/>
    </clipPath>
  </defs>
  <g id="Artboard_81" data-name="Artboard – 81" clip-path="url(#clip-Artboard_81)">
    <path id="lock-solid" d="M400,224H376V152C376,68.2,307.8,0,224,0S72,68.2,72,152v72H48A48.012,48.012,0,0,0,0,272V464a48.012,48.012,0,0,0,48,48H400a48.012,48.012,0,0,0,48-48V272A48.012,48.012,0,0,0,400,224Zm-104,0H152V152a72,72,0,0,1,144,0Z" transform="translate(32)" fill="#223143"/>
  </g>
</svg>
