<svg xmlns="http://www.w3.org/2000/svg" xmlns:xlink="http://www.w3.org/1999/xlink" width="576" height="512" viewBox="0 0 576 512">
  <defs>
    <clipPath id="clip-Artboard_80">
      <rect width="576" height="512"/>
    </clipPath>
  </defs>
  <g id="Artboard_80" data-name="Artboard – 80" clip-path="url(#clip-Artboard_80)">
    <path id="lock-open-solid" d="M423.5,0C339.5.3,272,69.5,272,153.5V224H48A48.012,48.012,0,0,0,0,272V464a48.012,48.012,0,0,0,48,48H400a48.012,48.012,0,0,0,48-48V272a48.012,48.012,0,0,0-48-48H352V152.9c0-39.6,31.7-72.5,71.3-72.9A72.106,72.106,0,0,1,496,152v80a23.942,23.942,0,0,0,24,24h32a23.942,23.942,0,0,0,24-24V152C576,68,507.5-.3,423.5,0Z" transform="translate(0 0.001)" fill="#223143"/>
  </g>
</svg>
