<svg xmlns="http://www.w3.org/2000/svg" xmlns:xlink="http://www.w3.org/1999/xlink" width="512" height="512" viewBox="0 0 512 512">
  <defs>
    <clipPath id="clip-Artboard_50">
      <rect width="512" height="512"/>
    </clipPath>
  </defs>
  <g id="Artboard_50" data-name="Artboard – 50" clip-path="url(#clip-Artboard_50)">
    <g id="add">
      <path id="Union_22" data-name="Union 22" d="M-5530-2159c0-141.167,114.833-256,256-256s256,114.853,256,256-114.833,256-256,256S-5530-2017.833-5530-2159Zm39.659,0c0,119.3,97.066,216.34,216.34,216.34,119.3,0,216.342-97.045,216.342-216.34s-97.066-216.34-216.342-216.34S-5490.341-2278.3-5490.341-2159Zm196.511,97.365v-79.318h-79.318a19.825,19.825,0,0,1-19.83-19.829,19.824,19.824,0,0,1,19.83-19.83h79.318v-79.318a19.826,19.826,0,0,1,19.83-19.831,19.826,19.826,0,0,1,19.831,19.831v79.318h79.318a19.824,19.824,0,0,1,19.83,19.83,19.825,19.825,0,0,1-19.83,19.829h-79.318v79.318a19.825,19.825,0,0,1-19.831,19.83A19.824,19.824,0,0,1-5293.831-2061.636Z" transform="translate(5530 2415)" fill="#223143"/>
    </g>
  </g>
</svg>
