<svg xmlns="http://www.w3.org/2000/svg" xmlns:xlink="http://www.w3.org/1999/xlink" width="512" height="512" viewBox="0 0 512 512">
  <defs>
    <clipPath id="clip-Artboard_56">
      <rect width="512" height="512"/>
    </clipPath>
  </defs>
  <g id="Artboard_56" data-name="Artboard – 56" clip-path="url(#clip-Artboard_56)">
    <g id="power-button" transform="translate(0 -0.101)">
      <path id="Union_20" data-name="Union 20" d="M-7256.763-1978.037a254.883,254.883,0,0,1,0-361.624,254.883,254.883,0,0,1,361.624,0,254.88,254.88,0,0,1,0,361.624,254.847,254.847,0,0,1-180.808,75.238A254.944,254.944,0,0,1-7256.763-1978.037Zm-45.187-180.811c0,124.616,101.383,226,226,226s226-101.383,226-226-101.383-226-226-226S-7301.95-2283.465-7301.95-2158.849Zm115,0a111.033,111.033,0,0,1,37.966-83.588,15,15,0,0,1,21.165,1.418,15,15,0,0,1-1.418,21.165,81.041,81.041,0,0,0-27.712,61,81.093,81.093,0,0,0,81,81,81.091,81.091,0,0,0,81-81,81.1,81.1,0,0,0-27.26-60.606,15,15,0,0,1-1.263-21.176,15,15,0,0,1,21.176-1.263,111.113,111.113,0,0,1,37.347,83.045,111.127,111.127,0,0,1-111,111A111.126,111.126,0,0,1-7186.951-2158.849Zm96-40v-80a15,15,0,0,1,15-15,15,15,0,0,1,15,15v80a15,15,0,0,1-15,15A15,15,0,0,1-7090.95-2198.849Z" transform="translate(7332 2414.899)" fill="#223143"/>
    </g>
  </g>
</svg>
