<svg xmlns="http://www.w3.org/2000/svg" xmlns:xlink="http://www.w3.org/1999/xlink" width="512" height="512" viewBox="0 0 512 512">
  <defs>
    <clipPath id="clip-Artboard_51">
      <rect width="512" height="512"/>
    </clipPath>
  </defs>
  <g id="Artboard_51" data-name="Artboard – 51" clip-path="url(#clip-Artboard_51)">
    <path id="user-4" d="M437.02,74.98A256,256,0,0,0,74.98,437.02,256,256,0,0,0,437.02,74.98ZM111.105,429.3C119.559,356.563,182.094,300.406,256,300.406A145.912,145.912,0,0,1,400.9,429.293a225.527,225.527,0,0,1-289.793,0ZM256,269.508a77.754,77.754,0,1,1,77.754-77.754A77.845,77.845,0,0,1,256,269.508ZM426.719,403.934A176.354,176.354,0,0,0,316.328,280.992a107.753,107.753,0,1,0-120.617.027A176.2,176.2,0,0,0,85.262,403.91,225.041,225.041,0,0,1,30,256C30,131.383,131.383,30,256,30S482,131.383,482,256A225.035,225.035,0,0,1,426.719,403.934Zm0,0" fill="#223143"/>
  </g>
</svg>
