<svg xmlns="http://www.w3.org/2000/svg" width="32" height="32" viewBox="0 0 32 32">
  <g id="Group_45" data-name="Group 45" transform="translate(-1246 132)">
    <path id="Subtraction_37" data-name="Subtraction 37" d="M-515,31a15.9,15.9,0,0,1-6.228-1.257,15.947,15.947,0,0,1-5.086-3.429,15.947,15.947,0,0,1-3.429-5.086A15.9,15.9,0,0,1-531,15a15.9,15.9,0,0,1,1.257-6.228,15.947,15.947,0,0,1,3.429-5.086A15.947,15.947,0,0,1-521.228.257,15.9,15.9,0,0,1-515-1,15.9,15.9,0,0,1-508.772.257a15.946,15.946,0,0,1,5.086,3.429,15.946,15.946,0,0,1,3.429,5.086A15.9,15.9,0,0,1-499,15a15.9,15.9,0,0,1-1.257,6.228,15.946,15.946,0,0,1-3.429,5.086,15.946,15.946,0,0,1-5.086,3.429A15.9,15.9,0,0,1-515,31Zm3.592-23.111a2.067,2.067,0,0,0-2.065,2.065V20.648a2.067,2.067,0,0,0,2.065,2.065,2.067,2.067,0,0,0,2.065-2.065V9.954A2.067,2.067,0,0,0-511.408,7.889Zm-7.75,0a2.067,2.067,0,0,0-2.065,2.065V20.648a2.067,2.067,0,0,0,2.065,2.065,2.067,2.067,0,0,0,2.065-2.065V9.954A2.067,2.067,0,0,0-519.158,7.889Z" transform="translate(1777 -131)" fill="#f5b300"/>
    <g id="pause" transform="translate(1255.778 -123.111)">
      <path id="Path_159" data-name="Path 159" d="M8.859,12.759a2.065,2.065,0,0,1-2.065,2.065h0a2.065,2.065,0,0,1-2.065-2.065V2.065A2.065,2.065,0,0,1,6.794,0h0A2.065,2.065,0,0,1,8.859,2.065Z" transform="translate(-4.729 0)" fill="#fff"/>
      <path id="Path_160" data-name="Path 160" d="M33.745,12.759a2.065,2.065,0,0,1-2.065,2.065h0a2.065,2.065,0,0,1-2.065-2.065V2.065A2.065,2.065,0,0,1,31.68,0h0a2.065,2.065,0,0,1,2.065,2.065Z" transform="translate(-21.866 0)" fill="#fff"/>
    </g>
  </g>
</svg>
