<svg xmlns="http://www.w3.org/2000/svg" width="32" height="32" viewBox="0 0 32 32">
  <g id="Group_41" data-name="Group 41" transform="translate(-1069 132)">
    <path id="Subtraction_34" data-name="Subtraction 34" d="M-515,31a15.9,15.9,0,0,1-6.228-1.257,15.947,15.947,0,0,1-5.086-3.429,15.947,15.947,0,0,1-3.429-5.086A15.9,15.9,0,0,1-531,15a15.9,15.9,0,0,1,1.257-6.228,15.947,15.947,0,0,1,3.429-5.086A15.947,15.947,0,0,1-521.228.257,15.9,15.9,0,0,1-515-1,15.9,15.9,0,0,1-508.772.257a15.946,15.946,0,0,1,5.086,3.429,15.946,15.946,0,0,1,3.429,5.086A15.9,15.9,0,0,1-499,15a15.9,15.9,0,0,1-1.257,6.228,15.946,15.946,0,0,1-3.429,5.086,15.946,15.946,0,0,1-5.086,3.429A15.9,15.9,0,0,1-515,31Zm-6.427-17.378a1.6,1.6,0,0,0-1.112.439A1.454,1.454,0,0,0-523,15.118a1.467,1.467,0,0,0,.461,1.068l6.592,6.794a1.492,1.492,0,0,0,1.1.442h.019a1.492,1.492,0,0,0,1.1-.442l6.591-6.794a1.466,1.466,0,0,0,.461-1.068,1.453,1.453,0,0,0-.461-1.057,1.6,1.6,0,0,0-1.111-.439,1.6,1.6,0,0,0-1.112.439l-3.906,4.082V7.616a1.542,1.542,0,0,0-1.574-1.5,1.524,1.524,0,0,0-1.574,1.5V18.143l-3.906-4.082A1.6,1.6,0,0,0-521.427,13.622Z" transform="translate(1600 -131)" fill="#00b100"/>
    <path id="Icon_ionic-md-arrow-round-down" data-name="Icon ionic-md-arrow-round-down" d="M6.791,15.707,13.383,22.5a1.5,1.5,0,0,0,1.1.443h.02a1.5,1.5,0,0,0,1.1-.443L22.2,15.707a1.455,1.455,0,0,0,0-2.125,1.627,1.627,0,0,0-2.224,0l-3.906,4.083V7.137a1.576,1.576,0,0,0-3.148,0V17.665L9.015,13.582a1.627,1.627,0,0,0-2.224,0A1.455,1.455,0,0,0,6.791,15.707Z" transform="translate(1070.67 -130.521)" fill="#fff"/>
  </g>
</svg>
