<svg xmlns="http://www.w3.org/2000/svg" width="32" height="32" viewBox="0 0 32 32">
  <g id="Group_48" data-name="Group 48" transform="translate(-1334 132)">
    <path id="Subtraction_39" data-name="Subtraction 39" d="M-515,31a15.9,15.9,0,0,1-6.228-1.257,15.947,15.947,0,0,1-5.086-3.429,15.947,15.947,0,0,1-3.429-5.086A15.9,15.9,0,0,1-531,15a15.9,15.9,0,0,1,1.257-6.228,15.947,15.947,0,0,1,3.429-5.086A15.947,15.947,0,0,1-521.228.257,15.9,15.9,0,0,1-515-1,15.9,15.9,0,0,1-508.772.257a15.946,15.946,0,0,1,5.086,3.429,15.946,15.946,0,0,1,3.429,5.086A15.9,15.9,0,0,1-499,15a15.9,15.9,0,0,1-1.257,6.228,15.946,15.946,0,0,1-3.429,5.086,15.946,15.946,0,0,1-5.086,3.429A15.9,15.9,0,0,1-515,31Zm-.239-9.891a2.412,2.412,0,0,0-2.38,2.38,2.412,2.412,0,0,0,2.38,2.38,2.377,2.377,0,0,0,1.7-.75,2.134,2.134,0,0,0,.621-1.573,2.323,2.323,0,0,0-.644-1.722A2.306,2.306,0,0,0-515.239,21.109Zm-.016-16.775a2.512,2.512,0,0,0-.574.067A2.592,2.592,0,0,0-517.666,7c.029.383.056.781.081,1.132.026.374.053.758.081,1.133.08,1.421.16,2.827.241,4.234l0,.036c.081,1.418.162,2.837.243,4.27a1.742,1.742,0,0,0,1.78,1.676,1.779,1.779,0,0,0,1.781-1.733c0-.583,0-1.133.057-1.733.053-.924.108-1.855.162-2.756l0-.027c.053-.895.109-1.819.16-2.729.029-.6.07-1.2.109-1.785s.081-1.19.109-1.785a2.917,2.917,0,0,0-.218-1.19A2.372,2.372,0,0,0-515.255,4.334Z" transform="translate(1865 -131)" fill="#f59700"/>
    <g id="Group_47" data-name="Group 47" transform="translate(1347.333 -126.667)">
      <path id="Path_162" data-name="Path 162" d="M220.605,333.382a2.38,2.38,0,1,0,0,4.76,2.381,2.381,0,0,0,0-4.76Z" transform="translate(-218.177 -316.607)" fill="#fff"/>
      <path id="Path_163" data-name="Path 163" d="M219.562,157.243a2.588,2.588,0,0,0-1.837,2.6c.057.752.1,1.514.162,2.266.162,2.866.324,5.674.486,8.54a1.744,1.744,0,0,0,1.78,1.676,1.78,1.78,0,0,0,1.78-1.733c0-.59,0-1.133.057-1.733.1-1.837.219-3.675.324-5.512.057-1.19.162-2.38.219-3.57a2.939,2.939,0,0,0-.219-1.19A2.386,2.386,0,0,0,219.562,157.243Z" transform="translate(-217.725 -157.176)" fill="#fff"/>
    </g>
  </g>
</svg>
