<svg xmlns="http://www.w3.org/2000/svg" width="32" height="32" viewBox="0 0 32 32">
  <g id="Group_44" data-name="Group 44" transform="translate(-1202 132)">
    <path id="Subtraction_40" data-name="Subtraction 40" d="M-515,31a15.9,15.9,0,0,1-6.228-1.257,15.947,15.947,0,0,1-5.086-3.429,15.947,15.947,0,0,1-3.429-5.086A15.9,15.9,0,0,1-531,15a15.9,15.9,0,0,1,1.257-6.228,15.947,15.947,0,0,1,3.429-5.086A15.947,15.947,0,0,1-521.228.257,15.9,15.9,0,0,1-515-1,15.9,15.9,0,0,1-508.772.257a15.946,15.946,0,0,1,5.086,3.429,15.946,15.946,0,0,1,3.429,5.086A15.9,15.9,0,0,1-499,15a15.9,15.9,0,0,1-1.257,6.228,15.946,15.946,0,0,1-3.429,5.086,15.946,15.946,0,0,1-5.086,3.429A15.9,15.9,0,0,1-515,31Zm7.568-18.222a2.507,2.507,0,0,0-1.784.739,2.506,2.506,0,0,0-.739,1.784,2.506,2.506,0,0,0,.739,1.784,2.507,2.507,0,0,0,1.784.739,2.507,2.507,0,0,0,1.784-.739,2.525,2.525,0,0,0,0-3.567A2.507,2.507,0,0,0-507.432,12.778Zm-7.568,0a2.505,2.505,0,0,0-1.784.739,2.5,2.5,0,0,0-.739,1.784,2.5,2.5,0,0,0,.739,1.784,2.507,2.507,0,0,0,1.784.739,2.5,2.5,0,0,0,1.783-.739,2.5,2.5,0,0,0,.739-1.784,2.5,2.5,0,0,0-.739-1.784A2.5,2.5,0,0,0-515,12.778Zm-7.568,0a2.506,2.506,0,0,0-1.784.739,2.506,2.506,0,0,0-.739,1.784,2.506,2.506,0,0,0,.739,1.784,2.507,2.507,0,0,0,1.785.739,2.5,2.5,0,0,0,1.783-.739,2.5,2.5,0,0,0,.739-1.784,2.5,2.5,0,0,0-.739-1.784A2.505,2.505,0,0,0-522.568,12.778Z" transform="translate(1733 -131)" fill="#6f6f6f"/>
    <g id="menu-2" transform="translate(1207.909 -118.222)">
      <path id="Path_164" data-name="Path 164" d="M390.972,194.072a2.523,2.523,0,1,1-3.568,0,2.523,2.523,0,0,1,3.568,0" transform="translate(-371.529 -193.333)" fill="#fff"/>
      <path id="Path_165" data-name="Path 165" d="M197.64,194.072a2.523,2.523,0,1,1-3.568,0,2.523,2.523,0,0,1,3.568,0" transform="translate(-185.766 -193.333)" fill="#fff"/>
      <path id="Path_166" data-name="Path 166" d="M4.307,194.072a2.523,2.523,0,1,1-3.568,0,2.523,2.523,0,0,1,3.568,0" transform="translate(-0.001 -193.333)" fill="#fff"/>
    </g>
  </g>
</svg>
