<svg xmlns="http://www.w3.org/2000/svg" width="32" height="32" viewBox="0 0 32 32">
  <g id="Group_40" data-name="Group 40" transform="translate(-1025 132)">
    <path id="Subtraction_33" data-name="Subtraction 33" d="M-515,31a15.9,15.9,0,0,1-6.228-1.257,15.947,15.947,0,0,1-5.086-3.429,15.947,15.947,0,0,1-3.429-5.086A15.9,15.9,0,0,1-531,15a15.9,15.9,0,0,1,1.257-6.228,15.947,15.947,0,0,1,3.429-5.086A15.947,15.947,0,0,1-521.228.257,15.9,15.9,0,0,1-515-1,15.9,15.9,0,0,1-508.772.257a15.946,15.946,0,0,1,5.086,3.429,15.946,15.946,0,0,1,3.429,5.086A15.9,15.9,0,0,1-499,15a15.9,15.9,0,0,1-1.257,6.228,15.946,15.946,0,0,1-3.429,5.086,15.946,15.946,0,0,1-5.086,3.429A15.9,15.9,0,0,1-515,31Zm-7.764-17.976a2,2,0,0,0-1.424.59,2.017,2.017,0,0,0,0,2.849l5.481,5.481a2,2,0,0,0,1.425.59,2,2,0,0,0,1.423-.59l10.618-10.616a2.018,2.018,0,0,0,0-2.849,2,2,0,0,0-1.424-.59,2,2,0,0,0-1.424.59l-9.192,9.192-4.058-4.057A2,2,0,0,0-522.764,13.024Z" transform="translate(1556 -131)" fill="#00b100"/>
    <g id="check" transform="translate(1031.222 -123.111)">
      <path id="Path_156" data-name="Path 156" d="M19.535,58.626,8.918,69.242a2.015,2.015,0,0,1-2.848,0L.589,63.761a2.014,2.014,0,0,1,2.848-2.849L7.495,64.97l9.192-9.192a2.014,2.014,0,0,1,2.849,2.848Z" transform="translate(0 -55.188)" fill="#fff"/>
    </g>
  </g>
</svg>
