<svg xmlns="http://www.w3.org/2000/svg" width="32" height="32" viewBox="0 0 32 32">
  <g id="Group_42" data-name="Group 42" transform="translate(-1113 132)">
    <path id="Subtraction_35" data-name="Subtraction 35" d="M-515,31a15.9,15.9,0,0,1-6.228-1.257,15.947,15.947,0,0,1-5.086-3.429,15.947,15.947,0,0,1-3.429-5.086A15.9,15.9,0,0,1-531,15a15.9,15.9,0,0,1,1.257-6.228,15.947,15.947,0,0,1,3.429-5.086A15.947,15.947,0,0,1-521.228.257,15.9,15.9,0,0,1-515-1,15.9,15.9,0,0,1-508.772.257a15.946,15.946,0,0,1,5.086,3.429,15.946,15.946,0,0,1,3.429,5.086A15.9,15.9,0,0,1-499,15a15.9,15.9,0,0,1-1.257,6.228,15.946,15.946,0,0,1-3.429,5.086,15.946,15.946,0,0,1-5.086,3.429A15.9,15.9,0,0,1-515,31Zm.066-13.982h0l5.087,5.087a1.439,1.439,0,0,0,1.013.419c.056.005.1.008.15.008a1.45,1.45,0,0,0,.95-.355c.023-.021.046-.044.067-.067a1.438,1.438,0,0,0,.39-1.037,1.437,1.437,0,0,0-.457-1.009l-5.138-5.108,5.138-5.138a1.454,1.454,0,0,0-.067-1.9,1.454,1.454,0,0,0-1.057-.458,1.443,1.443,0,0,0-.988.39l-5.072,5.072-5.174-5.144a1.449,1.449,0,0,0-.942-.348,1.45,1.45,0,0,0-.942.348,1.45,1.45,0,0,0-.158,2.041l5.158,5.159-5.158,5.159a1.45,1.45,0,0,0,0,2.04,1.445,1.445,0,0,0,.941.35l.086,0,.072,0a1.444,1.444,0,0,0,.942-.349l5.158-5.159Z" transform="translate(1644 -131)" fill="#f40000"/>
    <g id="close" transform="translate(1121.446 -123.57)">
      <g id="close_1_" transform="translate(0)">
        <path id="Path_157" data-name="Path 157" d="M1.449,17.536a1.447,1.447,0,0,1-1.027-.347,1.447,1.447,0,0,1,0-2.041L12.708,2.861A1.447,1.447,0,0,1,14.821,4.83L2.462,17.188a1.447,1.447,0,0,1-1.013.347Z" transform="translate(-0.001 -2.441)" fill="#fff"/>
        <path id="Path_158" data-name="Path 158" d="M15.176,16.939a1.447,1.447,0,0,1-1.013-.42L1.876,4.233A1.447,1.447,0,0,1,3.917,2.192L16.276,14.479a1.447,1.447,0,0,1,.067,2.046q-.033.035-.067.067a1.447,1.447,0,0,1-1.1.347Z" transform="translate(-1.455 -1.844)" fill="#fff"/>
      </g>
    </g>
  </g>
</svg>
