<svg xmlns="http://www.w3.org/2000/svg" width="32" height="32" viewBox="0 0 32 32">
  <g id="Group_46" data-name="Group 46" transform="translate(-1290 132)">
    <path id="Subtraction_38" data-name="Subtraction 38" d="M-515,31a15.9,15.9,0,0,1-6.228-1.257,15.947,15.947,0,0,1-5.086-3.429,15.947,15.947,0,0,1-3.429-5.086A15.9,15.9,0,0,1-531,15a15.9,15.9,0,0,1,1.257-6.228,15.947,15.947,0,0,1,3.429-5.086A15.947,15.947,0,0,1-521.228.257,15.9,15.9,0,0,1-515-1,15.9,15.9,0,0,1-508.772.257a15.946,15.946,0,0,1,5.086,3.429,15.946,15.946,0,0,1,3.429,5.086A15.9,15.9,0,0,1-499,15a15.9,15.9,0,0,1-1.257,6.228,15.946,15.946,0,0,1-3.429,5.086,15.946,15.946,0,0,1-5.086,3.429A15.9,15.9,0,0,1-515,31Zm.127-12.7a.155.155,0,0,0-.092.03l-4.358,3.2a.138.138,0,0,0-.054.112.127.127,0,0,0,.054.1l4.354,3.2a.169.169,0,0,0,.094.03.144.144,0,0,0,.15-.139V22.722a7.784,7.784,0,0,0,4.7-1.63,7.939,7.939,0,0,0,2.761-4.036A7.934,7.934,0,0,0-507,13.934a7.732,7.732,0,0,0-1.66-3.967,1.107,1.107,0,0,0-.867-.42,1.07,1.07,0,0,0-.638.21,1.076,1.076,0,0,0-.432.733,1.08,1.08,0,0,0,.23.822,5.594,5.594,0,0,1,1.244,3.249,5.658,5.658,0,0,1-.442,2.5,5.7,5.7,0,0,1-5.162,3.5V18.44a.133.133,0,0,0-.047-.1A.161.161,0,0,0-514.873,18.3Zm-.194-13.967a.146.146,0,0,0-.151.139V6.591a7.8,7.8,0,0,0-4.7,1.634,7.957,7.957,0,0,0-2.763,4.032,7.845,7.845,0,0,0-.265,3.123,7.771,7.771,0,0,0,1.664,3.967,1.1,1.1,0,0,0,.866.42,1.073,1.073,0,0,0,.639-.21,1.076,1.076,0,0,0,.436-.733,1.078,1.078,0,0,0-.229-.823,5.663,5.663,0,0,1-1.245-3.249,5.622,5.622,0,0,1,.442-2.5,5.709,5.709,0,0,1,5.162-3.5v2.114a.143.143,0,0,0,.149.139.161.161,0,0,0,.094-.03l4.354-3.2a.127.127,0,0,0,.054-.1.137.137,0,0,0-.054-.111l-4.358-3.2A.154.154,0,0,0-515.067,4.334Z" transform="translate(1821 -131)" fill="#009dff"/>
    <g id="refresh" transform="translate(1298 -126.667)">
      <g id="Group_38" data-name="Group 38" transform="translate(0 0)">
        <path id="Path_161" data-name="Path 161" d="M54.69,11.046a7.88,7.88,0,0,1,7.729-8.788V.139A.152.152,0,0,1,62.663.03l4.359,3.2a.134.134,0,0,1,0,.214l-4.354,3.2a.151.151,0,0,1-.244-.109V4.427a5.706,5.706,0,0,0-5.161,3.5,5.636,5.636,0,0,0,.8,5.745,1.088,1.088,0,1,1-1.711,1.345A7.772,7.772,0,0,1,54.69,11.046ZM67.274,6.978a5.636,5.636,0,0,1,.8,5.745,5.7,5.7,0,0,1-5.161,3.5V14.106A.152.152,0,0,0,62.671,14l-4.359,3.2a.134.134,0,0,0,0,.214l4.354,3.2a.151.151,0,0,0,.244-.109V18.389A7.88,7.88,0,0,0,70.64,9.6a7.731,7.731,0,0,0-1.66-3.968,1.086,1.086,0,1,0-1.706,1.345Z" transform="translate(-54.637 0)" fill="#fff"/>
      </g>
    </g>
  </g>
</svg>
