<svg xmlns="http://www.w3.org/2000/svg" width="32" height="32" viewBox="0 0 32 32">
  <g id="Group_43" data-name="Group 43" transform="translate(-1157 132)">
    <path id="Subtraction_36" data-name="Subtraction 36" d="M-515,31a15.9,15.9,0,0,1-6.228-1.257,15.947,15.947,0,0,1-5.086-3.429,15.947,15.947,0,0,1-3.429-5.086A15.9,15.9,0,0,1-531,15a15.9,15.9,0,0,1,1.257-6.228,15.947,15.947,0,0,1,3.429-5.086A15.947,15.947,0,0,1-521.228.257,15.9,15.9,0,0,1-515-1,15.9,15.9,0,0,1-508.772.257a15.946,15.946,0,0,1,5.086,3.429,15.946,15.946,0,0,1,3.429,5.086A15.9,15.9,0,0,1-499,15a15.9,15.9,0,0,1-1.257,6.228,15.946,15.946,0,0,1-3.429,5.086,15.946,15.946,0,0,1-5.086,3.429A15.9,15.9,0,0,1-515,31Zm-2.743-9.208a1.4,1.4,0,0,0-1.394,1.4,1.4,1.4,0,0,0,1.394,1.394h5.486a1.4,1.4,0,0,0,1.394-1.394,1.4,1.4,0,0,0-1.394-1.4H-513.6V12.214A1.4,1.4,0,0,0-515,10.82h-2.743a1.4,1.4,0,0,0-1.394,1.394,1.4,1.4,0,0,0,1.394,1.4h1.349v8.182ZM-515,4.951a1.745,1.745,0,0,0-1.743,1.743A1.746,1.746,0,0,0-515,8.438a1.746,1.746,0,0,0,1.743-1.744A1.745,1.745,0,0,0-515,4.951Z" transform="translate(1688 -131)" fill="#0067e0"/>
    <path id="info-2" d="M204.944,117.991a1.4,1.4,0,0,1-1.395,1.395h-5.486a1.395,1.395,0,0,1,0-2.79h1.348v-8.183h-1.348a1.395,1.395,0,0,1,0-2.79h2.743a1.4,1.4,0,0,1,1.395,1.395V116.6h1.348A1.4,1.4,0,0,1,204.944,117.991ZM199.062,101.5a1.744,1.744,0,1,1,1.743,1.744A1.743,1.743,0,0,1,199.062,101.5Zm0,0" transform="translate(972.194 -225.803)" fill="#fff"/>
  </g>
</svg>
