<svg xmlns="http://www.w3.org/2000/svg" xmlns:xlink="http://www.w3.org/1999/xlink" width="512" height="512" viewBox="0 0 512 512">
  <defs>
    <clipPath id="clip-path">
      <path id="Path_17673" data-name="Path 17673" d="M311.975,62.29a21.737,21.737,0,0,1,.987,7.9v1.975l.987,2.962v.987c-.987,26.657-19.745,47.39-44.428,49.365h-7.9c-7.9,18.758-22.707,28.631-42.452,28.631h-.987c-9.872,0-18.758-2.962-25.666-8.886-8.886,8.886-19.745,14.809-32.58,15.8h-3.949a49.6,49.6,0,0,1-44.428-26.657l-2.962-5.924c-4.937.987-8.886,1.975-13.822,1.975-23.695,0-44.428-17.771-50.352-41.466L0,133.374H0l77.993,79.97v-38.5h207.33c61.21-2.962,70.1-51.337,71.085-74.046h0V14.9Z" transform="translate(0.005 -14.9)"/>
    </clipPath>
    <clipPath id="clip-Artboard_77">
      <rect width="512" height="512"/>
    </clipPath>
  </defs>
  <g id="Artboard_77" data-name="Artboard – 77" clip-path="url(#clip-Artboard_77)">
    <path id="Path_210" data-name="Path 210" d="M64,0H448a64,64,0,0,1,64,64V448a64,64,0,0,1-64,64H64A64,64,0,0,1,0,448V64A64,64,0,0,1,64,0Z" fill="#223143"/>
    <g id="Group_113" data-name="Group 113" transform="translate(78 109)">
      <g id="Group_9761" data-name="Group 9761">
        <path id="Path_17668" data-name="Path 17668" d="M277.815,42.716H88.261C29.025,37.78,4.34,69.372.394,110.837c0,4.937-.987,9.873,0,14.809v80.96l42.45-45.419c0-11.847,2.962-23.695,9.873-33.566C61.6,114.788,74.435,106.888,89.248,105.9h.986c8.886-24.681,26.657-41.466,50.352-46.4,5.924-1.975,12.833-1.975,18.757-1.975,20.733,0,39.49,8.886,55.287,27.643h5.924c17.771,0,32.58,9.873,39.49,26.657h5.924c18.758,0,34.554,10.861,42.452,27.643l48.376-50.352h0L277.815,5.2Z" transform="translate(0.045 -5.2)" fill="#ee2b3a"/>
      </g>
      <g id="Group_9764" data-name="Group 9764" transform="translate(0.434 95.764)">
        <g id="Group_9763" data-name="Group 9763" transform="translate(0)">
          <path id="Path_17671" data-name="Path 17671" d="M311.975,62.29a78.7,78.7,0,0,1,1.93,14.132,45.044,45.044,0,0,1-.828,7.8c-4,22.58-21.391,39.48-43.556,41.253h-7.9c-7.9,18.758-22.707,28.631-42.452,28.631h-.987c-9.872,0-18.758-2.962-25.666-8.886-8.886,8.886-19.745,14.809-32.58,15.8h-3.949a49.6,49.6,0,0,1-44.428-26.657l-2.962-5.924c-4.937.987-8.886,1.975-13.822,1.975-23.695,0-44.428-17.771-50.352-41.466L0,133.374H0l77.993,79.97v-38.5h207.33c61.21-2.962,70.1-51.337,71.085-74.046h0V14.9Z" transform="translate(0.005 -14.9)" fill="#ee2b3a"/>
        </g>
      </g>
      <path id="Path_17674" data-name="Path 17674" d="M211.393,65.634c-2.962.987-3.949,0-4.937-2.962-5.924-17.771-21.719-27.643-39.49-23.695A5.129,5.129,0,0,1,163.017,37c-17.771-21.719-39.49-29.619-66.147-23.695C75.152,18.245,60.339,33.054,52.443,53.786c-1.97,4.929-4.932,5.916-8.885,6.907C18.877,62.674,1.106,88.342,6.045,115c5.924,27.643,33.565,43.436,59.237,31.588,1.975-.987,2.962-.987,2.962.987a60.4,60.4,0,0,0,4.937,11.847c8.886,15.8,23.695,23.695,40.478,21.719,12.833-.987,21.719-6.911,29.619-16.784,1.975-1.975,2.962-1.975,4.937,0,6.911,6.911,15.8,9.873,25.666,9.873,16.784-.987,28.631-8.886,35.542-24.681.987-3.949,2.962-3.949,5.924-3.949h6.911c19.745-.987,33.567-18.528,34.555-40.249v-4.178c-.986-22.709-22.7-40.478-45.413-35.542" transform="translate(46.722 49.873)" fill="#fff"/>
    </g>
  </g>
</svg>
