<svg xmlns="http://www.w3.org/2000/svg" xmlns:xlink="http://www.w3.org/1999/xlink" width="32" height="32" viewBox="0 0 32 32">
  <defs>
    <clipPath id="clip-Artboard_7">
      <rect width="32" height="32"/>
    </clipPath>
  </defs>
  <g id="Artboard_7" data-name="Artboard – 7" clip-path="url(#clip-Artboard_7)">
    <g id="Group_138" data-name="Group 138">
      <g id="Group_124" data-name="Group 124">
        <g id="Group_9761" data-name="Group 9761" transform="translate(0 3)">
          <path id="Path_17668" data-name="Path 17668" d="M25.4,8.569H8.386C3.068,8.126.852,10.963.5,14.687c0,.31,0,.616,0,3.429,0,.665,0,1.477,0,2.485,0,.766-.012,1.662,0,2.687l3.811-4.079a5.222,5.222,0,0,1,.886-3.015,4.312,4.312,0,0,1,3.279-1.951h.089a6.124,6.124,0,0,1,4.52-4.167A5.45,5.45,0,0,1,14.766,9.9a6.328,6.328,0,0,1,4.963,2.483h.532a3.735,3.735,0,0,1,3.545,2.394h.532a4.178,4.178,0,0,1,3.811,2.483l4.343-4.522h0L25.4,5.2Z" transform="translate(-0.492 -5.2)" fill="#ee2b3a"/>
        </g>
        <path id="Subtraction_55" data-name="Subtraction 55" d="M-610,420.8l0,0-7-7.169,3.987-3.984a4.816,4.816,0,0,0,4.521,3.718,4.9,4.9,0,0,0,1.052-.139l.014,0,.174-.035.266.531.025.046.009.018a4.455,4.455,0,0,0,3.835,2.326h.473a4.306,4.306,0,0,0,.742-.123,8.967,8.967,0,0,0,.321,1.362H-610V420.8Zm24.991-10.317a9.032,9.032,0,0,0-3.548-3.7l3.55-3.783v7.478Z" transform="translate(617.006 -391.385)" fill="#ee2b3a"/>
        <path id="Subtraction_56" data-name="Subtraction 56" d="M-607.713,418.248a3.585,3.585,0,0,1-3.184-1.974,5.364,5.364,0,0,1-.443-1.063c0-.1-.029-.146-.092-.146a.438.438,0,0,0-.175.058,3.775,3.775,0,0,1-1.589.357,3.881,3.881,0,0,1-3.731-3.189,4.335,4.335,0,0,1,.8-3.425,3.582,3.582,0,0,1,2.565-1.445.946.946,0,0,0,.8-.619,5.5,5.5,0,0,1,3.99-3.631,6.858,6.858,0,0,1,1.478-.171,5.573,5.573,0,0,1,4.462,2.3.458.458,0,0,0,.355.177,3.206,3.206,0,0,1,.692-.077,3.01,3.01,0,0,1,2.854,2.2c.063.189.129.3.274.3a.547.547,0,0,0,.169-.033,3.258,3.258,0,0,1,.69-.074,3.387,3.387,0,0,1,2.612,1.259,8.986,8.986,0,0,0-2.443-.337,9.01,9.01,0,0,0-9,9c0,.135,0,.272.009.406a3.8,3.8,0,0,1-.646.1A3.873,3.873,0,0,1-607.713,418.248Z" transform="translate(621.624 -394.491)" fill="#fff"/>
      </g>
      <g id="Group_127" data-name="Group 127" transform="translate(0.781 0.781)">
        <path id="Path_209" data-name="Path 209" d="M-774.391,110.219A7.618,7.618,0,0,1-782,102.61,7.618,7.618,0,0,1-774.391,95a7.618,7.618,0,0,1,7.61,7.609A7.618,7.618,0,0,1-774.391,110.219Z" transform="translate(798 -79.781)" fill="#b50000"/>
        <g id="close" transform="translate(18.97 18.242)">
          <g id="close_1_">
            <path id="Path_107" data-name="Path 107" d="M.88,11.62a.879.879,0,0,1-.624-.211.879.879,0,0,1,0-1.239L7.718,2.708A.879.879,0,0,1,9,3.9L1.5,11.409a.879.879,0,0,1-.615.211Z" transform="translate(-0.001 -2.453)" fill="#fff"/>
            <path id="Path_108" data-name="Path 108" d="M9.817,11.012a.879.879,0,0,1-.615-.255L1.74,3.295A.879.879,0,0,1,2.979,2.055l7.506,7.462a.879.879,0,0,1,.041,1.242l-.041.041a.879.879,0,0,1-.668.211Z" transform="translate(-1.484 -1.844)" fill="#fff"/>
          </g>
        </g>
      </g>
    </g>
  </g>
</svg>
