<svg xmlns="http://www.w3.org/2000/svg" xmlns:xlink="http://www.w3.org/1999/xlink" width="128" height="128" viewBox="0 0 128 128">
  <defs>
    <clipPath id="clip-path">
      <path id="Path_17673" data-name="Path 17673" d="M111.9,31.9a7.8,7.8,0,0,1,.354,2.833v.708l.354,1.062v.354c-.354,9.562-7.082,17-15.936,17.707H93.839c-2.833,6.728-8.145,10.27-15.227,10.27h-.354a13.864,13.864,0,0,1-9.206-3.187,18.345,18.345,0,0,1-11.686,5.666H55.949A17.793,17.793,0,0,1,40.013,57.75L38.95,55.626a23.924,23.924,0,0,1-4.958.708c-8.5,0-15.936-6.374-18.061-14.874L0,57.4H0L27.973,86.081V72.27h74.369c21.956-1.062,25.143-18.415,25.5-26.56h0V14.9Z" transform="translate(0.005 -14.9)"/>
    </clipPath>
    <clipPath id="clip-Artboard_87">
      <rect width="128" height="128"/>
    </clipPath>
  </defs>
  <g id="Artboard_87" data-name="Artboard – 87" clip-path="url(#clip-Artboard_87)">
    <g id="Group_18" data-name="Group 18" transform="translate(199.232 -819.85)">
      <g id="Group_9761" data-name="Group 9761" transform="translate(-199.232 830.85)">
        <path id="Path_17668" data-name="Path 17668" d="M99.623,18.657H31.63C10.382,16.886,1.528,28.218.113,43.092c0,1.771-.354,3.541,0,5.312v29.04L15.339,61.152a20.848,20.848,0,0,1,3.541-12.04,17.23,17.23,0,0,1,13.1-7.79h.354C35.525,32.469,41.9,26.448,50.4,24.677a21.786,21.786,0,0,1,6.728-.708c7.437,0,14.165,3.187,19.831,9.915h2.125a14.923,14.923,0,0,1,14.165,9.562h2.125A16.694,16.694,0,0,1,110.6,53.361L127.952,35.3h0L99.623,5.2Z" transform="translate(0.045 -5.2)" fill="#ee2b3a"/>
      </g>
      <g id="Group_9764" data-name="Group 9764" transform="translate(-199.076 865.201)">
        <g id="Group_9763" data-name="Group 9763" transform="translate(0)">
          <path id="Path_17671" data-name="Path 17671" d="M111.9,31.9a7.8,7.8,0,0,1,.354,2.833v.708l.354,1.062v.354c-.354,9.562-7.082,17-15.936,17.707H93.839c-2.833,6.728-8.145,10.27-15.227,10.27h-.354a13.864,13.864,0,0,1-9.206-3.187,18.345,18.345,0,0,1-11.686,5.666H55.949A17.793,17.793,0,0,1,40.013,57.75L38.95,55.626a23.924,23.924,0,0,1-4.958.708c-8.5,0-15.936-6.374-18.061-14.874L0,57.4H0L27.973,86.081V72.27h74.369c21.956-1.062,25.143-18.415,25.5-26.56h0V14.9Z" transform="translate(0.005 -14.9)" fill="#ee2b3a"/>
        </g>
      </g>
      <path id="Path_17674" data-name="Path 17674" d="M79.172,30.856c-1.062.354-1.416,0-1.771-1.062-2.125-6.374-7.79-9.915-14.165-8.5a1.84,1.84,0,0,1-1.416-.708c-6.374-7.79-14.165-10.624-23.727-8.5-7.79,1.771-13.1,7.083-15.936,14.519-.707,1.768-1.769,2.122-3.187,2.478C10.118,29.794,3.743,39,5.515,48.563c2.125,9.915,12.04,15.58,21.248,11.331.708-.354,1.062-.354,1.062.354A21.665,21.665,0,0,0,29.6,64.5c3.187,5.666,8.5,8.5,14.519,7.791,4.6-.354,7.79-2.479,10.624-6.02.708-.708,1.062-.708,1.771,0a12.54,12.54,0,0,0,9.206,3.541c6.02-.354,10.27-3.187,12.749-8.853.354-1.416,1.062-1.416,2.125-1.416h2.479c7.082-.354,12.394-6.728,12.749-14.519,0-.354-.354-1.062-.354-1.416-.354-8.146-8.144-14.519-16.289-12.749" transform="translate(-185.82 841.426)" fill="#fff"/>
    </g>
  </g>
</svg>
