<svg xmlns="http://www.w3.org/2000/svg" width="182" height="182" viewBox="0 0 182 182">
  <g id="Group_84" data-name="Group 84" transform="translate(1130.382 -428)">
    <path id="Path_129" data-name="Path 129" d="M25.639,0H156.361c8.915,0,12.148.928,15.407,2.671a18.17,18.17,0,0,1,7.561,7.56C181.072,13.491,182,16.724,182,25.639V156.361c0,8.915-.928,12.148-2.671,15.407a18.167,18.167,0,0,1-7.561,7.561c-3.259,1.743-6.492,2.671-15.407,2.671H25.639c-8.915,0-12.148-.928-15.407-2.671a18.17,18.17,0,0,1-7.56-7.561C.928,168.509,0,165.276,0,156.361V25.639c0-8.915.928-12.148,2.671-15.407a18.173,18.173,0,0,1,7.56-7.56C13.491.928,16.724,0,25.639,0Z" transform="translate(-1130.382 428)" fill="#223143" fill-rule="evenodd"/>
    <g id="Group_18" data-name="Group 18" transform="translate(-887.526 -370.85)">
      <g id="Group_9761" data-name="Group 9761" transform="translate(-199.232 830.85)">
        <path id="Path_17668" data-name="Path 17668" d="M73.735,15.162H23.4C7.674,13.851,1.119,22.239.072,33.25a19.718,19.718,0,0,0,0,3.932v21.5l11.272-12.06a15.433,15.433,0,0,1,2.621-8.913,12.755,12.755,0,0,1,9.7-5.767h.262C26.286,25.386,31,20.929,37.3,19.618a16.127,16.127,0,0,1,4.981-.524c5.505,0,10.486,2.359,14.68,7.34H58.53a11.047,11.047,0,0,1,10.486,7.078h1.573a12.358,12.358,0,0,1,11.272,7.34l12.845-13.37h0L73.735,5.2Z" transform="translate(0.045 -5.2)" fill="#ee2b3a"/>
      </g>
      <g id="Group_9764" data-name="Group 9764" transform="translate(-199.117 856.278)">
        <g id="Group_9763" data-name="Group 9763" transform="translate(0)">
          <path id="Path_17671" data-name="Path 17671" d="M82.835,27.483a5.772,5.772,0,0,1,.262,2.1v.524l.262.786v.262c-.262,7.078-5.243,12.583-11.8,13.108h-2.1c-2.1,4.981-6.029,7.6-11.272,7.6H57.93A10.263,10.263,0,0,1,51.115,49.5,13.58,13.58,0,0,1,42.464,53.7H41.415a13.171,13.171,0,0,1-11.8-7.078l-.786-1.573a17.71,17.71,0,0,1-3.67.524c-6.292,0-11.8-4.719-13.37-11.01L0,46.358H0L20.706,67.593V57.369H75.758c16.253-.786,18.612-13.632,18.875-19.661h0V14.9Z" transform="translate(0.005 -14.9)" fill="#ee2b3a"/>
        </g>
      </g>
      <path id="Path_17674" data-name="Path 17674" d="M59.963,25.8c-.786.262-1.049,0-1.311-.786-1.573-4.719-5.767-7.34-10.486-6.292a1.362,1.362,0,0,1-1.049-.524C42.4,12.434,36.633,10.337,29.554,11.91c-5.767,1.311-9.7,5.243-11.8,10.748A2.8,2.8,0,0,1,15.4,24.492c-6.553.526-11.272,7.342-9.961,14.42,1.573,7.34,8.913,11.533,15.729,8.388.524-.262.786-.262.786.262a16.037,16.037,0,0,0,1.311,3.146C25.624,54.9,29.556,57,34.012,56.474a10.6,10.6,0,0,0,7.865-4.457c.524-.524.786-.524,1.311,0A9.283,9.283,0,0,0,50,54.639a10.2,10.2,0,0,0,9.437-6.553c.262-1.049.786-1.049,1.573-1.049h1.835c5.243-.262,9.175-4.981,9.437-10.748,0-.262-.262-.786-.262-1.049A10.122,10.122,0,0,0,59.965,25.8" transform="translate(-190.659 835.717)" fill="#fff"/>
    </g>
    <g id="Group_9787" data-name="Group 9787" transform="translate(-1091.758 556.06)">
      <path id="Path_17692" data-name="Path 17692" d="M137.6,15.251V7.834c0-.333.083-.417.417-.417h4.25c.333,0,.417.083.333.417v1c0,.083-.083.167.083.25.083.083.167-.083.25-.083a13.412,13.412,0,0,1,2.333-1.417,5.705,5.705,0,0,1,5.75.5,3.567,3.567,0,0,1,1.167,1.333c.167.333.25.25.5.083A10.184,10.184,0,0,1,156.1,7.417a5.474,5.474,0,0,1,5.5.75,4.419,4.419,0,0,1,1.583,2.75,6.538,6.538,0,0,1,.167,1.833v10c0,.333-.083.417-.417.417h-4.167c-.333,0-.417-.083-.417-.417V13.834a8.211,8.211,0,0,0-.167-1.417,1.937,1.937,0,0,0-2-1.417,5.169,5.169,0,0,0-2.917.833c-.25.083-.167.333-.167.5v10.25c0,.583,0,.5-.5.5h-4.167c-.333,0-.417-.083-.417-.417V13.834a8.211,8.211,0,0,0-.167-1.417,1.937,1.937,0,0,0-2-1.417,5.169,5.169,0,0,0-2.917.833c-.25.167-.25.333-.25.583v9.667c0,.333.167.75-.083,1s-.667.083-1,.083h-3.583c-.333,0-.417-.083-.417-.417Z" transform="translate(-58.597 -1.099)" fill="#fff" fill-rule="evenodd"/>
      <path id="Path_17693" data-name="Path 17693" d="M97.669,20.147V18.481c0-.167-.083-.333.083-.417a.393.393,0,0,1,.5.083,14.246,14.246,0,0,0,1.917,1.083,10.434,10.434,0,0,0,5.75.75,2.5,2.5,0,0,0,.833-.333.923.923,0,0,0-.167-1.667,9.221,9.221,0,0,0-2.167-.583,19.771,19.771,0,0,1-3.833-.917,4.477,4.477,0,0,1-2.75-5.417,4.906,4.906,0,0,1,2.333-2.833,10.12,10.12,0,0,1,4.167-1.25,15.414,15.414,0,0,1,6.75.833.582.582,0,0,1,.5.667v3.084c0,.167.083.333-.083.417s-.333,0-.583-.083a8.4,8.4,0,0,0-1.917-1,8.511,8.511,0,0,0-4.75-.5c-.25.083-.583.167-.833.25a.906.906,0,0,0-.583.833,1.025,1.025,0,0,0,.583.917,9.221,9.221,0,0,0,2.167.583,26.064,26.064,0,0,1,3.667.833,4.125,4.125,0,0,1,2.667,2.333,4.637,4.637,0,0,1-1.583,5.667,8.91,8.91,0,0,1-4.583,1.583,24.531,24.531,0,0,1-3.5,0,17.7,17.7,0,0,1-4.5-1.083.385.385,0,0,1-.25-.417A5.961,5.961,0,0,0,97.669,20.147Z" transform="translate(-51.917 -1.079)" fill="#fff" fill-rule="evenodd"/>
      <path id="Path_17694" data-name="Path 17694" d="M124.867,15.737V10.07c0-.333-.083-.5-.417-.5h-1.417c-.25,0-.333-.083-.333-.25V6.487c0-.25.083-.333.333-.333h1.5c.25,0,.333-.083.333-.333a9.975,9.975,0,0,1,.417-2.75A4.691,4.691,0,0,1,128.45.237a11.733,11.733,0,0,1,4.167-.25c.583.083,1.167.083,1.75.167.25,0,.25.083.25.333V3.57c0,.417-.25.25-.417.25-.417-.083-.833-.25-1.25-.333a4.543,4.543,0,0,0-1.833.083,1.6,1.6,0,0,0-1.333,1.5c-.167,1.083-.167,1.083.917,1.083h2.5c.25,0,.417.083.417.417V9.237c0,.25-.083.417-.333.333h-2.917c-.333,0-.417.083-.417.417V21.4c0,.333-.083.5-.5.5H125.2c-.333,0-.333-.083-.333-.333Z" transform="translate(-56.114 0.081)" fill="#fff" fill-rule="evenodd"/>
      <path id="Path_17695" data-name="Path 17695" d="M44.944,15.758V10.091c0-.417-.083-.5-.5-.5H43.11c-.25,0-.333-.083-.333-.25V6.508a.221.221,0,0,1,.25-.25h1.5c.25,0,.333-.083.333-.333a9.39,9.39,0,0,1,.417-2.667A4.505,4.505,0,0,1,48.694.341,10.273,10.273,0,0,1,52.611.174c.583.083,1.167.083,1.75.167.25,0,.333.167.333.417V3.591c0,.417-.083.5-.5.333-.417-.083-.833-.25-1.333-.333a4.959,4.959,0,0,0-1.917.083,1.521,1.521,0,0,0-1.167,1.167c-.083.333-.083.667-.167,1-.083.25.083.333.333.333h3.167c.25,0,.417.083.417.417V9.258c0,.25-.083.417-.333.417h-3c-.333,0-.417.083-.417.417V21.508c0,.333-.083.5-.5.5h-4.25c-.333,0-.333-.083-.333-.333A48.172,48.172,0,0,0,44.944,15.758Z" transform="translate(-42.775 0.06)" fill="#fff" fill-rule="evenodd"/>
      <path id="Path_17696" data-name="Path 17696" d="M73.5,11.117V21.534c0,.417-.083.5-.5.5H68.917c-.333,0-.417-.083-.417-.417v-21c0-.333.083-.417.417-.417h4.167c.333,0,.417.083.417.5Z" transform="translate(-47.081 0.035)" fill="#fff" fill-rule="evenodd"/>
      <path id="Path_17697" data-name="Path 17697" d="M59.8,15.333V7.917c0-.333.083-.417.417-.417h4.25c.25,0,.417.083.417.333v15c0,.25-.083.333-.333.333H60.217c-.333,0-.333-.083-.333-.417C59.8,20.25,59.8,17.75,59.8,15.333Z" transform="translate(-45.631 -1.182)" fill="#fff" fill-rule="evenodd"/>
      <path id="Path_17698" data-name="Path 17698" d="M117.1,22.45V20.117c0-.25.083-.417.333-.417h4.5c.25,0,.417.083.417.333v4.833c0,.333-.083.333-.417.333h-4.417c-.333,0-.417-.083-.417-.417Z" transform="translate(-55.181 -3.215)" fill="#fff" fill-rule="evenodd"/>
      <path id="Path_17699" data-name="Path 17699" d="M62.267.2h2.25c.25,0,.333.083.333.333V3.7c0,.25-.083.333-.333.333H59.933c-.25,0-.333-.083-.333-.333V.533c0-.25.083-.333.333-.333Z" transform="translate(-45.598 0.035)" fill="#fff" fill-rule="evenodd"/>
      <path id="Path_17700" data-name="Path 17700" d="M92.8,12.061a5.961,5.961,0,0,0-4.583-4.833,11.263,11.263,0,0,0-6.833.333A7.245,7.245,0,0,0,76.8,12.31a9.815,9.815,0,0,0-.25,4.917A6.611,6.611,0,0,0,79.8,22.06a12.269,12.269,0,0,0,5.417,1.5,16.6,16.6,0,0,0,7.25-1.167c.25-.083.333-.167.333-.417V18.644c0-.417-.25-.5-.583-.417-.083,0-.167.083-.25.167a8.842,8.842,0,0,1-7.333,1.417,3.718,3.718,0,0,1-3-3.083c-.083-.5-.083-.5.417-.5H92.717c.167,0,.333.083.333-.25A20.2,20.2,0,0,0,92.8,12.061Zm-5.167,1.166H81.8c-.25,0-.25-.083-.25-.333a3.027,3.027,0,0,1,3.083-2.833,2.874,2.874,0,0,1,2.417.667,3.22,3.22,0,0,1,.917,2.25C87.967,13.227,87.8,13.227,87.634,13.227Z" transform="translate(-48.381 -1.075)" fill="#fff"/>
    </g>
  </g>
</svg>
