<svg width="205" height="33" xmlns="http://www.w3.org/2000/svg">
 <g>
  <title>Layer 1</title>
  <g id="svg_21">
   <g stroke="null" id="svg_1">
    <g stroke="null" data-name="Group 111" id="svg_2">
     <g stroke="null" data-name="Group 9787" id="svg_10">
      <path stroke="null" fill-rule="evenodd" fill="#fff" d="m152.70706,20.53705l0,-9.875c0,-0.444 0.111,-0.555 0.555,-0.555l5.658,0c0.444,0 0.555,0.111 0.444,0.555l0,1.332c0,0.111 -0.111,0.222 0.111,0.333c0.111,0.111 0.222,-0.111 0.333,-0.111a17.856,17.856 0 0 1 3.107,-1.886a7.6,7.6 0 0 1 7.656,0.666a4.749,4.749 0 0 1 1.553,1.775c0.222,0.444 0.333,0.333 0.666,0.111a13.56,13.56 0 0 1 4.549,-2.774a7.288,7.288 0 0 1 7.323,1a5.883,5.883 0 0 1 2.108,3.661a8.7,8.7 0 0 1 0.222,2.441l0,13.312c0,0.444 -0.111,0.555 -0.555,0.555l-5.548,0c-0.444,0 -0.555,-0.111 -0.555,-0.555l0,-11.867a10.934,10.934 0 0 0 -0.227,-1.89c-0.333,-1.22 -1.22,-1.775 -2.663,-1.886a6.882,6.882 0 0 0 -3.883,1.109c-0.333,0.111 -0.222,0.444 -0.222,0.666l0,13.647c0,0.777 0,0.666 -0.666,0.666l-5.548,0c-0.444,0 -0.555,-0.111 -0.555,-0.555l0,-11.757a10.934,10.934 0 0 0 -0.222,-1.886c-0.333,-1.22 -1.22,-1.775 -2.663,-1.886a6.882,6.882 0 0 0 -3.883,1.109c-0.333,0.222 -0.333,0.444 -0.333,0.777l0,12.866c0,0.444 0.222,1 -0.111,1.331s-0.888,0.111 -1.331,0.111l-4.771,0c-0.444,0 -0.555,-0.111 -0.555,-0.555l0.006,-9.985z" data-name="Path 17692" id="svg_19"/>
      <path stroke="null" fill-rule="evenodd" fill="#fff" d="m108.43906,27.08305l0,-2.219c0,-0.222 -0.111,-0.444 0.111,-0.555a0.523,0.523 0 0 1 0.666,0.111a18.967,18.967 0 0 0 2.552,1.442a13.892,13.892 0 0 0 7.656,1a3.323,3.323 0 0 0 1.11,-0.444a1.229,1.229 0 0 0 -0.222,-2.219a12.277,12.277 0 0 0 -2.885,-0.777a26.322,26.322 0 0 1 -5.1,-1.22a5.961,5.961 0 0 1 -3.661,-7.212a6.532,6.532 0 0 1 3.107,-3.772a13.474,13.474 0 0 1 5.541,-1.665a20.521,20.521 0 0 1 8.987,1.109a0.775,0.775 0 0 1 0.666,0.888l0,4.105c0,0.222 0.111,0.444 -0.111,0.555s-0.444,0 -0.777,-0.111a11.179,11.179 0 0 0 -2.552,-1.332a11.331,11.331 0 0 0 -6.324,-0.666c-0.333,0.111 -0.777,0.222 -1.109,0.333a1.206,1.206 0 0 0 -0.78,1.111a1.364,1.364 0 0 0 0.777,1.22a12.277,12.277 0 0 0 2.885,0.777a34.7,34.7 0 0 1 4.882,1.11a5.492,5.492 0 0 1 3.55,3.107a6.174,6.174 0 0 1 -2.108,7.545a11.863,11.863 0 0 1 -6.1,2.108a32.66,32.66 0 0 1 -4.66,0a23.566,23.566 0 0 1 -5.991,-1.442a0.513,0.513 0 0 1 -0.333,-0.555a7.937,7.937 0 0 0 0.223,-2.332z" data-name="Path 17693" id="svg_18"/>
      <path stroke="null" fill-rule="evenodd" fill="#fff" d="m139.06106,22.75605l0,-7.545c0,-0.444 -0.111,-0.666 -0.555,-0.666l-1.886,0c-0.333,0 -0.444,-0.111 -0.444,-0.333l0,-3.771c0,-0.333 0.111,-0.444 0.444,-0.444l2,0c0.333,0 0.444,-0.111 0.444,-0.444a13.282,13.282 0 0 1 0.555,-3.661a6.246,6.246 0 0 1 4.213,-3.773a15.621,15.621 0 0 1 5.544,-0.333c0.777,0.111 1.553,0.111 2.33,0.222c0.333,0 0.333,0.111 0.333,0.444l0,4.105c0,0.555 -0.333,0.333 -0.555,0.333c-0.555,-0.111 -1.109,-0.333 -1.664,-0.444a6.048,6.048 0 0 0 -2.441,0.111a2.134,2.134 0 0 0 -1.775,2c-0.222,1.442 -0.222,1.442 1.221,1.442l3.328,0c0.333,0 0.555,0.111 0.555,0.555l0,3.55c0,0.333 -0.111,0.555 -0.444,0.444l-3.883,0c-0.444,0 -0.555,0.111 -0.555,0.555l0,15.2c0,0.444 -0.111,0.666 -0.666,0.666l-5.658,0c-0.444,0 -0.444,-0.111 -0.444,-0.444l0.003,-7.769z" data-name="Path 17694" id="svg_17"/>
      <path stroke="null" fill-rule="evenodd" fill="#fff" d="m50.41206,22.75605l0,-7.545c0,-0.555 -0.111,-0.666 -0.666,-0.666l-1.775,0c-0.333,0 -0.444,-0.111 -0.444,-0.333l0,-3.771a0.294,0.294 0 0 1 0.333,-0.333l2,0c0.333,0 0.444,-0.111 0.444,-0.444a12.5,12.5 0 0 1 0.555,-3.55a6,6 0 0 1 4.545,-3.884a13.678,13.678 0 0 1 5.215,-0.222c0.777,0.111 1.553,0.111 2.33,0.222c0.333,0 0.444,0.222 0.444,0.555l0,3.772c0,0.555 -0.111,0.666 -0.666,0.444c-0.555,-0.111 -1.109,-0.333 -1.775,-0.444a6.6,6.6 0 0 0 -2.552,0.111a2.025,2.025 0 0 0 -1.551,1.554c-0.111,0.444 -0.111,0.888 -0.222,1.331c-0.111,0.333 0.111,0.444 0.444,0.444l4.216,0c0.333,0 0.555,0.111 0.555,0.555l0,3.546c0,0.333 -0.111,0.555 -0.444,0.555l-3.997,0c-0.444,0 -0.555,0.111 -0.555,0.555l0,15.2c0,0.444 -0.111,0.666 -0.666,0.666l-5.658,0c-0.444,0 -0.444,-0.111 -0.444,-0.444a64.136,64.136 0 0 0 0.334,-7.874z" data-name="Path 17695" id="svg_16"/>
      <path stroke="null" fill-rule="evenodd" fill="#fff" d="m82.69806,16.54205l0,13.866c0,0.555 -0.111,0.666 -0.666,0.666l-5.436,0c-0.444,0 -0.555,-0.111 -0.555,-0.555l0,-27.956c0,-0.444 0.111,-0.555 0.555,-0.555l5.545,0c0.444,0 0.555,0.111 0.555,0.666l0.002,13.868z" data-name="Path 17696" id="svg_15"/>
      <path stroke="null" fill-rule="evenodd" fill="#fff" d="m66.38806,20.53705l0,-9.874c0,-0.444 0.111,-0.555 0.555,-0.555l5.658,0c0.333,0 0.555,0.111 0.555,0.444l0,19.971c0,0.333 -0.111,0.444 -0.444,0.444l-5.769,0c-0.444,0 -0.444,-0.111 -0.444,-0.555c-0.111,-3.329 -0.111,-6.657 -0.111,-9.875z" data-name="Path 17697" id="svg_14"/>
      <path stroke="null" fill-rule="evenodd" fill="#fff" d="m129.96306,27.30505l0,-3.106c0,-0.333 0.111,-0.555 0.444,-0.555l5.991,0c0.333,0 0.555,0.111 0.555,0.444l0,6.435c0,0.444 -0.111,0.444 -0.555,0.444l-5.88,0c-0.444,0 -0.555,-0.111 -0.555,-0.555l0,-3.107z" data-name="Path 17698" id="svg_13"/>
      <path stroke="null" fill-rule="evenodd" fill="#fff" d="m69.71706,2.00805l3,0c0.333,0 0.444,0.111 0.444,0.444l0,4.216c0,0.333 -0.111,0.444 -0.444,0.444l-6.1,0c-0.333,0 -0.444,-0.111 -0.444,-0.444l0,-4.216c0,-0.333 0.111,-0.444 0.444,-0.444l3.1,0z" data-name="Path 17699" id="svg_12"/>
      <path stroke="null" fill="#fff" d="m106.66306,16.32105a7.936,7.936 0 0 0 -6.1,-6.435a15,15 0 0 0 -9.1,0.443a9.646,9.646 0 0 0 -6.1,6.325a13.067,13.067 0 0 0 -0.333,6.546a8.8,8.8 0 0 0 4.325,6.434a16.336,16.336 0 0 0 7.212,2a22.108,22.108 0 0 0 9.653,-1.553c0.333,-0.111 0.444,-0.222 0.444,-0.555l0,-4.44c0,-0.555 -0.333,-0.666 -0.777,-0.555c-0.111,0 -0.222,0.111 -0.333,0.222a11.772,11.772 0 0 1 -9.764,1.881a4.951,4.951 0 0 1 -3.994,-4.1c-0.111,-0.666 -0.111,-0.666 0.555,-0.666l14.2,0c0.222,0 0.444,0.111 0.444,-0.333a26.893,26.893 0 0 0 -0.332,-5.214zm-6.879,1.553l-7.766,0c-0.333,0 -0.333,-0.111 -0.333,-0.444c0.222,-2.441 1.886,-3.55 4.105,-3.772a3.826,3.826 0 0 1 3.218,0.888a4.287,4.287 0 0 1 1.22,3c0,0.328 -0.217,0.328 -0.444,0.328z" data-name="Path 17700" id="svg_11"/>
     </g>
     <g stroke="null" data-name="Group 108" id="svg_3">
      <g stroke="null" data-name="Group 9761" id="svg_8">
       <path stroke="null" fill="#ee2b3a" d="m31.51302,4.256l-21.503,0c-6.72,-0.556 -9.52,3.024 -9.968,7.728a8.424,8.424 0 0 0 0,1.68l0,9.184l4.816,-5.148a6.593,6.593 0 0 1 1.12,-3.808a5.449,5.449 0 0 1 4.144,-2.464l0.115,0a7.737,7.737 0 0 1 5.712,-5.264a6.89,6.89 0 0 1 2.128,-0.224a8,8 0 0 1 6.272,3.136l0.672,0a4.719,4.719 0 0 1 4.476,3.024l0.672,0a5.28,5.28 0 0 1 4.816,3.136l5.488,-5.712l0,0l-8.96,-9.524l0,4.256z" data-name="Path 17668" id="svg_9"/>
      </g>
      <g stroke="null" data-name="Group 9764" id="svg_5">
       <g stroke="null" data-name="Group 9763" id="svg_6">
        <path stroke="null" fill="#ee2b3a" d="m35.43201,16.24002a2.466,2.466 0 0 1 0.112,0.9l0,0.224l0.112,0.336l0,0.112a5.611,5.611 0 0 1 -5.04,5.6l-0.9,0a4.942,4.942 0 0 1 -4.816,3.248l-0.112,0a4.385,4.385 0 0 1 -2.912,-1.008a5.8,5.8 0 0 1 -3.7,1.792l-0.448,0a5.627,5.627 0 0 1 -5.04,-3.024l-0.336,-0.672a7.566,7.566 0 0 1 -1.559,0.216a6.066,6.066 0 0 1 -5.712,-4.7l-5.035,5.04l0,0l8.848,9.072l0,-4.368l23.52,0c6.944,-0.336 7.952,-5.824 8.064,-8.4l0,0l0,-9.744l-5.046,5.376z" data-name="Path 17671" id="svg_7"/>
       </g>
      </g>
      <path stroke="null" fill="#fff" d="m29.27301,13.10404c-0.336,0.112 -0.448,0 -0.56,-0.336a3.77,3.77 0 0 0 -4.48,-2.688a0.582,0.582 0 0 1 -0.448,-0.224a7.05,7.05 0 0 0 -7.5,-2.688a6.955,6.955 0 0 0 -5.04,4.592a1.2,1.2 0 0 1 -1.012,0.788c-2.8,0.225 -4.816,3.137 -4.256,6.161a4.8,4.8 0 0 0 6.72,3.583c0.224,-0.112 0.336,-0.112 0.336,0.112a6.851,6.851 0 0 0 0.56,1.344a4.525,4.525 0 0 0 4.592,2.464a4.528,4.528 0 0 0 3.36,-1.9c0.224,-0.224 0.336,-0.224 0.56,0a3.966,3.966 0 0 0 2.912,1.12a4.357,4.357 0 0 0 4.032,-2.8c0.112,-0.448 0.336,-0.448 0.672,-0.448l0.784,0a4.535,4.535 0 0 0 4.032,-4.592c0,-0.112 -0.112,-0.336 -0.112,-0.448a4.325,4.325 0 0 0 -5.152,-4.032" data-name="Path 17674" id="svg_4"/>
     </g>
    </g>
   </g>
   <rect opacity="0" stroke-width="0" stroke="#000" id="svg_20" height="31.40429" width="18.0862" y="0.57486" x="187.37368" fill="#fff"/>
  </g>
 </g>

</svg>